<?xml version="1.0" encoding="utf-8"?>
<!-- Generator: Adobe Illustrator 23.0.4, SVG Export Plug-In . SVG Version: 6.00 Build 0)  -->
<svg version="1.1" id="Layer_1" xmlns="http://www.w3.org/2000/svg" xmlns:xlink="http://www.w3.org/1999/xlink" x="0px" y="0px"
	 viewBox="0 0 255 16" style="enable-background:new 0 0 255 16;" xml:space="preserve">
<style type="text/css">
	.st0{fill:#FFFFFF;}
</style>
<g>
	<path class="st0" d="M13.5,8.6c-0.2-0.3-0.4-0.5-0.7-0.8c-0.1-0.1-0.2-0.2-0.4-0.3l0.1-0.1C12.7,7.2,12.8,7,13,6.8
		c0.1-0.2,0.2-0.5,0.3-0.9c0.1-0.3,0.1-0.7,0.1-1.1c0-0.7-0.1-1.3-0.4-1.8c-0.3-0.5-0.6-0.9-1-1.2s-0.9-0.6-1.5-0.7
		C10.2,1,9.6,0.9,9.1,0.9H1.3v14h7.8c0.6,0,1.2-0.1,1.8-0.2c0.6-0.1,1.2-0.3,1.6-0.6c0.5-0.3,0.9-0.7,1.2-1.3
		c0.3-0.5,0.5-1.2,0.5-2.1c0-0.4-0.1-0.8-0.2-1.2C13.9,9.2,13.7,8.8,13.5,8.6z M9.1,12.8H3.4v-4h5.7c1,0,1.7,0.2,2.2,0.6
		c0.5,0.4,0.8,0.9,0.8,1.6c0,0.4-0.1,0.7-0.2,0.9c-0.1,0.2-0.3,0.4-0.6,0.6c-0.3,0.1-0.6,0.3-0.9,0.3C10,12.8,9.6,12.8,9.1,12.8z
		 M10.9,6.2c-0.4,0.4-1,0.5-1.8,0.5H3.4V3h5.7c0.8,0,1.4,0.2,1.8,0.5c0.4,0.3,0.6,0.7,0.6,1.2C11.5,5.3,11.3,5.8,10.9,6.2z"/>
	<polygon class="st0" points="25.4,0.9 23.3,0.9 23.3,14.8 33.9,14.8 33.9,12.8 25.4,12.8 	"/>
	<path class="st0" d="M52,9.3c0,1.3-0.3,2.3-1,2.8c-0.7,0.6-1.7,0.8-3.1,0.8c-1.4,0-2.4-0.3-3.1-0.8c-0.7-0.5-1-1.5-1-2.8V0.9h-2.1
		v8.5c0,0.9,0.1,1.7,0.3,2.4s0.6,1.3,1.1,1.8s1.2,0.9,1.9,1.2c0.8,0.3,1.7,0.4,2.8,0.4s2-0.1,2.8-0.4c0.8-0.3,1.4-0.6,2-1.1
		c0.5-0.5,0.9-1.1,1.1-1.8c0.2-0.7,0.4-1.5,0.4-2.4V0.9H52V9.3z"/>
	<polygon class="st0" points="66.3,8.6 71.3,8.6 71.3,6.6 66.3,6.6 66.3,3 75.8,3 75.8,0.9 64.2,0.9 64.2,14.8 76.2,14.8 76.2,12.8 
		66.3,12.8 	"/>
	<polygon class="st0" points="99.1,8.6 104.1,8.6 104.1,6.6 99.1,6.6 99.1,3 108.6,3 108.6,0.9 96.9,0.9 96.9,14.8 109,14.8 
		109,12.8 99.1,12.8 	"/>
	<polygon class="st0" points="119.9,0.9 117.8,0.9 117.8,14.8 128.4,14.8 128.4,12.8 119.9,12.8 	"/>
	<polygon class="st0" points="138.1,8.6 143.1,8.6 143.1,6.6 138.1,6.6 138.1,3 147.6,3 147.6,0.9 136,0.9 136,14.8 148,14.8 
		148,12.8 138.1,12.8 	"/>
	<path class="st0" d="M167.4,1.6c-0.5-0.3-0.9-0.5-1.5-0.6c-0.5-0.1-1-0.2-1.4-0.2h-7.7v14h2.1V9.1h5.6c0.6,0,1.2-0.1,1.7-0.2
		c0.6-0.1,1-0.4,1.5-0.7c0.4-0.3,0.7-0.8,1-1.3c0.2-0.5,0.4-1.2,0.4-1.9c0-0.8-0.2-1.6-0.5-2.1C168.2,2.4,167.8,1.9,167.4,1.6z
		 M166.9,5c0,0.4-0.1,0.7-0.2,1c-0.1,0.3-0.3,0.4-0.5,0.6c-0.2,0.1-0.4,0.3-0.7,0.3c-0.3,0.1-0.7,0.1-1,0.1h-5.6V3h5.6
		c0.3,0,0.6,0,0.9,0.1c0.3,0.1,0.5,0.2,0.7,0.3s0.4,0.3,0.5,0.6C166.8,4.2,166.9,4.6,166.9,5z"/>
	<polygon class="st0" points="187.9,6.5 179.7,6.5 179.7,0.9 177.6,0.9 177.6,14.8 179.7,14.8 179.7,8.6 187.9,8.6 187.9,14.8 
		190,14.8 190,0.9 187.9,0.9 	"/>
	<path class="st0" d="M204.4,0.9l-6.7,14h2.4l2.1-4.6h6.1l2.2,4.6h2.4l-6.6-14C206.3,0.9,204.4,0.9,204.4,0.9z M207.4,8.1h-4.1
		l2.1-4.4L207.4,8.1z"/>
	<polygon class="st0" points="231,11.5 222.6,0.9 220.7,0.9 220.7,14.8 222.8,14.8 222.8,4.3 231.1,14.8 231.1,14.8 233.1,14.8 
		233.1,0.9 231,0.9 	"/>
	<polygon class="st0" points="241.7,0.9 241.7,3 246.7,3 246.7,14.8 248.8,14.8 248.8,3 253.7,3 253.7,0.9 	"/>
</g>
</svg>
